<?xml version="1.0" standalone="no"?>
<!DOCTYPE svg PUBLIC "-//W3C//DTD SVG 20010904//EN"
 "http://www.w3.org/TR/2001/REC-SVG-20010904/DTD/svg10.dtd">
<svg version="1.0" xmlns="http://www.w3.org/2000/svg"
 width="248.000000pt" height="248.000000pt" viewBox="0 0 248.000000 248.000000"
 preserveAspectRatio="xMidYMid meet">
<metadata>
Created by potrace 1.14, written by Peter Selinger 2001-2017
</metadata>
<g transform="translate(0.000000,248.000000) scale(0.100000,-0.100000)"
fill="#000000" stroke="none">
<path d="M1769 2176 c-2 -2 -26 -7 -54 -10 -27 -3 -60 -8 -71 -10 -12 -2 -39
-7 -60 -10 -22 -4 -46 -8 -54 -11 -8 -2 -26 -6 -40 -9 -14 -3 -52 -13 -85 -22
-33 -9 -67 -18 -75 -19 -42 -10 -313 -115 -355 -138 -11 -6 -22 -12 -25 -12
-15 -3 -106 -52 -112 -60 -4 -5 -8 -7 -8 -2 0 4 -18 -4 -40 -18 -22 -14 -42
-25 -45 -25 -3 0 -31 -16 -61 -35 -30 -19 -58 -35 -62 -35 -5 0 -17 -8 -28
-18 -10 -10 -22 -18 -25 -18 -6 1 -167 -112 -212 -147 -27 -22 -11 -42 46 -60
63 -21 74 -29 115 -87 40 -56 71 -137 79 -204 11 -87 5 -218 -12 -291 -9 -38
-18 -86 -21 -105 -2 -19 -9 -37 -15 -41 -6 -3 -10 -10 -9 -15 1 -5 -12 -38
-28 -74 -16 -36 -40 -90 -52 -120 -26 -64 -55 -128 -117 -260 -57 -123 -70
-171 -55 -204 6 -15 18 -23 29 -22 20 3 31 22 64 111 13 33 26 62 29 65 4 3
24 37 44 75 21 39 46 84 57 100 10 17 23 39 28 50 17 39 163 270 174 277 7 4
8 8 2 8 -6 0 -6 3 1 8 6 4 30 36 54 72 24 36 49 70 55 76 9 10 63 26 80 25 2
0 23 6 45 14 22 8 41 14 43 14 3 0 28 8 52 17 11 4 28 9 38 11 10 1 31 10 48
18 16 9 29 13 29 10 0 -3 13 1 29 10 17 8 38 16 48 18 10 2 27 8 38 13 11 6
49 21 85 34 36 13 68 29 72 34 4 6 8 8 8 4 0 -12 330 137 341 155 3 5 9 8 13
8 8 -1 164 77 180 90 6 5 43 33 81 61 71 53 187 165 215 208 8 12 20 28 27 35
7 7 9 15 6 19 -4 3 -1 6 5 6 7 0 12 7 12 15 0 8 5 15 10 15 6 0 10 4 10 9 0 5
8 26 17 47 23 54 24 140 3 184 -40 79 -146 141 -265 156 -54 6 -321 14 -326
10z m396 -71 c102 -36 141 -88 132 -179 -5 -55 -34 -136 -48 -136 -5 0 -9 -5
-9 -11 0 -28 -155 -201 -220 -246 -14 -9 -30 -22 -37 -28 -6 -7 -35 -27 -65
-45 -29 -18 -64 -40 -78 -49 -14 -8 -28 -14 -32 -13 -5 1 -8 -2 -8 -8 0 -5 -7
-10 -15 -10 -8 0 -15 -3 -15 -8 0 -8 -91 -52 -109 -52 -6 0 -11 -4 -11 -10 0
-5 -18 -15 -40 -21 -22 -7 -40 -16 -40 -21 0 -4 -3 -7 -7 -6 -5 1 -19 -4 -33
-10 -116 -50 -185 -77 -245 -97 -38 -13 -83 -29 -100 -36 -16 -7 -36 -13 -43
-15 -8 -1 -21 -6 -30 -10 -9 -4 -21 -8 -27 -10 -5 -1 -43 -14 -84 -28 -41 -14
-78 -26 -83 -26 -15 0 -8 30 10 48 10 10 21 25 24 33 3 8 42 66 87 129 44 63
87 123 93 133 7 11 51 71 98 135 47 65 85 122 85 129 0 21 -22 35 -43 29 -20
-7 -84 -83 -156 -186 -21 -30 -44 -58 -50 -62 -6 -5 -7 -8 -1 -8 6 0 6 -3 -1
-8 -6 -4 -40 -50 -77 -102 -36 -52 -70 -100 -74 -105 -4 -6 -28 -39 -52 -75
-25 -36 -47 -67 -51 -70 -3 -3 -24 -34 -47 -70 -23 -36 -48 -72 -56 -82 -9 -9
-14 -18 -11 -20 2 -2 -10 -20 -26 -39 l-29 -34 5 35 c4 19 12 59 20 89 13 54
13 224 0 303 -9 55 -35 127 -61 173 -27 47 -108 135 -124 135 -6 0 -11 8 -11
18 0 17 106 98 173 132 15 7 27 17 27 22 0 4 5 8 11 8 6 0 23 9 39 20 33 24
291 155 380 194 61 26 207 82 240 91 81 23 248 66 269 70 48 8 86 14 131 20
25 4 46 8 48 9 1 2 76 2 165 1 126 -1 173 -6 212 -20z"/>
</g>
</svg>
